<svg xmlns="http://www.w3.org/2000/svg" viewBox="0 0 512 512">
<rect width="512" height="512" fill="#0D0D0F"/>
<g transform="translate(107.52000000000001 170.07915522703274) scale(0.3135797254487856)">
<path d="M808.001 412.483C808.001 402.116 818.875 395.345 828.177 399.919L925.182 447.61C934.866 452.371 935.749 465.837 926.77 471.823L829.766 536.489C820.462 542.692 808 536.022 808 524.841L808.001 412.483Z" fill="#D92FFF"/>
<path d="M276.049 39C276.049 18.0132 293.062 1 314.049 1H398.984C419.971 1 436.984 18.0132 436.984 39V509.51C436.984 530.496 419.971 547.51 398.984 547.51H314.049C293.062 547.51 276.049 530.496 276.049 509.51V39Z" fill="#D92FFF"/>
<path d="M168.759 23.9996C168.759 11.297 179.056 0.999581 191.759 0.999581H204.992C217.694 0.999581 227.992 11.297 227.992 23.9996V524.509C227.992 537.212 217.694 547.509 204.992 547.509H191.759C179.056 547.509 168.759 537.212 168.759 524.509V23.9996Z" fill="#FB772D"/>
<path d="M75.9972 16.6465C75.9972 8.00517 83.0024 1 91.6437 1C100.285 1 107.29 8.00517 107.29 16.6465V531.863C107.29 540.504 100.285 547.51 91.6437 547.51C83.0024 547.51 75.9972 540.504 75.9972 531.863V16.6465Z" fill="#CCFF84"/>
<path d="M0 8.26294C0 4.2509 3.2524 0.998466 7.26444 0.998466C11.2765 0.998466 14.5289 4.25087 14.5289 8.26291V540.244C14.5289 544.256 11.2765 547.508 7.26444 547.508C3.2524 547.508 0 544.256 0 540.244V8.26294Z" fill="#4CEAFF"/>
<path d="M380.81 547.627C374.183 547.627 368.81 542.255 368.81 535.627V12C368.81 5.3726 374.183 0 380.81 0H506.107C510.244 0 514.09 2.13144 516.283 5.64001L647.312 215.287C652.012 222.807 662.964 222.807 667.664 215.287L798.693 5.64C800.886 2.13143 804.731 0 808.869 0H934.948C941.575 0 946.948 5.37258 946.948 12V405.324C946.948 413.864 938.28 419.671 930.382 416.422L817.475 369.969C812.977 368.118 810.041 363.735 810.041 358.871V251.98C810.041 240.078 794.581 235.437 788.026 245.37L666.704 429.209C661.966 436.39 651.433 436.398 646.683 429.225L525.375 246.025C518.81 236.109 503.37 240.758 503.37 252.65V535.627C503.37 542.255 497.997 547.627 491.37 547.627H380.81Z" fill="white"/>
</g>
</svg>
