<?xml version="1.0" encoding="UTF-8"?>
<!-- Streamline Flex solid icons by Streamline (CC BY 4.0): https://streamlinehq.com -->
<!-- Font Awesome Solid icons (Font Awesome Free License): https://fontawesome.com -->
<!-- IconPark Solid and Unicons Solid icons selected through IconBuddy -->
<svg xmlns="http://www.w3.org/2000/svg" aria-hidden="true">
<defs>
<symbol id="home-2-solid" viewBox="0 0 14 14"><path fill="currentColor" fill-rule="evenodd" d="M6.093 1.265a1.5 1.5 0 0 1 1.814 0l.66.501a20.5 20.5 0 0 1 4.905 5.335l.212.333a1 1 0 0 1-.844 1.536h-.691c.04.92-.01 1.841-.15 2.752a1.856 1.856 0 0 1-1.836 1.574H8.25V10a1.25 1.25 0 1 0-2.5 0v3.296H3.837a1.86 1.86 0 0 1-1.835-1.574c-.14-.911-.19-1.833-.15-2.752H1.16a1 1 0 0 1-.844-1.536L.527 7.1a20.5 20.5 0 0 1 4.906-5.334z" clip-rule="evenodd"/></symbol>
<symbol id="magnifying-glass-solid" viewBox="0 0 14 14"><path fill="currentColor" fill-rule="evenodd" d="M2.01 6.012c0-1.416.395-2.382 1.007-2.994c.613-.613 1.578-1.008 2.995-1.008s2.382.395 2.994 1.008s1.008 1.578 1.008 2.994s-.395 2.382-1.008 2.995s-1.578 1.007-2.994 1.007S3.63 9.62 3.017 9.007C2.405 8.394 2.01 7.429 2.01 6.012M6.012.01c-1.785 0-3.32.505-4.409 1.593S.01 4.227.01 6.013c0 1.784.505 3.32 1.593 4.408s2.624 1.593 4.409 1.593c1.392 0 2.633-.307 3.628-.96l2.638 2.638a1 1 0 0 0 1.414-1.414l-2.637-2.637c.652-.996.959-2.236.959-3.629c0-1.785-.505-3.32-1.593-4.409S7.797.01 6.01.01" clip-rule="evenodd"/></symbol>
<symbol id="blank-calendar-solid" viewBox="0 0 14 14"><path fill="currentColor" fill-rule="evenodd" d="M3.003 2.237V.915a.75.75 0 1 1 1.5 0V2.09c1.08-.08 1.991-.105 2.497-.105s1.413.026 2.49.104V.915a.75.75 0 1 1 1.5 0v1.32a3.23 3.23 0 0 1 2.533 2.352c.074.284-.16.538-.453.538H.93c-.294 0-.527-.254-.453-.538a3.23 3.23 0 0 1 2.526-2.35M.276 6.85a.495.495 0 0 1 .496-.474h12.456c.266 0 .486.208.496.474c.019.453.026.825.026 1.062c0 .496-.031 1.58-.133 2.772a3.23 3.23 0 0 1-2.905 2.941a40 40 0 0 1-3.712.21a40 40 0 0 1-3.712-.21a3.23 3.23 0 0 1-2.905-2.942A36 36 0 0 1 .25 7.911c0-.237.007-.609.026-1.062" clip-rule="evenodd"/></symbol>
<symbol id="play-list-6-solid" viewBox="0 0 14 14"><path fill="currentColor" fill-rule="evenodd" d="M3.694 11.49c.033.475.393.866.862.95l.165.03c.736.132 1.498.269 2.278.269c.781 0 1.543-.137 2.279-.27l.165-.03c.47-.083.829-.474.862-.95l.044-.61c.084-1.161.17-2.365.17-3.6c0-1.233-.086-2.437-.17-3.599l-.044-.61a1.05 1.05 0 0 0-.862-.95l-.165-.03c-.736-.132-1.498-.27-2.279-.27s-1.542.138-2.278.27l-.165.03c-.47.083-.829.475-.862.95l-.044.61c-.084 1.162-.171 2.366-.171 3.6s.087 2.438.171 3.6zm2.901-7.163a.625.625 0 0 0-.625.625v2.235c-.79.003-1.235.45-1.235 1.243c0 .795.447 1.243 1.243 1.243S7.22 9.225 7.22 8.43V5.617c.44.105.775.49.79.903q.004.086.004.171a.625.625 0 1 0 1.25 0a6 6 0 0 0-.004-.22C9.214 5.3 8.22 4.406 7.11 4.343a9 9 0 0 0-.515-.016m5.248 7.25a.252.252 0 0 1-.271-.27l.007-.102l.016-.227c.084-1.16.175-2.415.175-3.698s-.091-2.539-.175-3.7l-.016-.226l-.007-.102a.252.252 0 0 1 .27-.27l.509.04c.477.035.866.397.943.87l.062.379c.16.971.325 1.977.325 3.009s-.166 2.037-.325 3.008l-.062.38a1.04 1.04 0 0 1-.943.87zm-9.416-.27a.252.252 0 0 1-.27.27l-.509-.04a1.04 1.04 0 0 1-.943-.869l-.062-.38C.483 9.318.318 8.311.318 7.28c0-1.032.166-2.038.325-3.009l.062-.38c.077-.472.466-.834.943-.87l.508-.038a.252.252 0 0 1 .271.27l-.007.1l-.016.229C2.32 4.742 2.23 5.997 2.23 7.28s.091 2.538.175 3.698l.016.228z" clip-rule="evenodd"/></symbol>
<symbol id="user-circle-single-solid" viewBox="0 0 14 14"><path fill="currentColor" fill-rule="evenodd" d="M7 14c4.48 0 7-2.52 7-7s-2.52-7-7-7s-7 2.52-7 7s2.52 7 7 7m3.637-2.471A4.12 4.12 0 0 0 7 9.354a4.13 4.13 0 0 0-3.636 2.175c.832.598 2.016.971 3.636.971s2.804-.373 3.637-.971m-1.282-6.26c0 1.507-.848 2.356-2.356 2.356c-1.507 0-2.355-.849-2.355-2.356c0-1.508.848-2.356 2.355-2.356s2.356.848 2.356 2.356" clip-rule="evenodd"/></symbol>
<symbol id="star-circle-solid" viewBox="0 0 14 14"><path fill="currentColor" fill-rule="evenodd" d="M2.021 2.021C3.203.84 4.908.25 7 .25s3.797.59 4.979 1.771S13.75 4.908 13.75 7s-.59 3.797-1.771 4.979S9.092 13.75 7 13.75s-3.797-.59-4.979-1.771S.25 9.092.25 7s.59-3.797 1.771-4.979m4.054 1.506c.339-.828 1.51-.828 1.85 0l.587 1.431l1.599.14c.892.079 1.24 1.2.547 1.77l-1.161.953l.38 1.762c.19.879-.786 1.542-1.533 1.042L7 9.726l-1.344.9c-.748.499-1.723-.164-1.534-1.043l.38-1.762l-1.16-.954c-.693-.568-.346-1.69.547-1.769l1.599-.14z" clip-rule="evenodd"/></symbol>
<symbol id="heart-solid" viewBox="0 0 14 14"><path fill="currentColor" fill-rule="evenodd" d="M13.75 4.941c-.023-1.582-.92-3.14-2.297-3.782a3.2 3.2 0 0 0-2.36-.139c-.705.224-1.412.683-2.093 1.405c-.681-.722-1.388-1.18-2.093-1.405a3.2 3.2 0 0 0-2.36.139C1.17 1.801.273 3.359.25 4.941v.008c0 2.307 1.372 4.351 2.826 5.786a12.3 12.3 0 0 0 2.183 1.725c.338.206.657.371.94.487c.27.11.553.194.801.194s.53-.084.8-.194c.284-.115.603-.28.94-.486a12.3 12.3 0 0 0 2.184-1.726C12.378 9.3 13.75 7.256 13.75 4.95z" clip-rule="evenodd"/></symbol>
<symbol id="play-list-4-solid" viewBox="0 0 14 14"><path fill="currentColor" fill-rule="evenodd" d="M3.657.475C4.731.355 5.852.25 7 .25s2.269.105 3.343.225a3.63 3.63 0 0 1 3.194 3.203c.115 1.069.213 2.182.213 3.322s-.098 2.253-.213 3.322a3.63 3.63 0 0 1-3.194 3.203c-1.074.12-2.195.225-3.343.225s-2.269-.105-3.343-.225a3.63 3.63 0 0 1-3.194-3.203C.348 9.253.25 8.14.25 7s.098-2.253.213-3.322A3.63 3.63 0 0 1 3.657.475m1.004 8.869C4.55 8.614 4.426 7.655 4.426 7s.124-1.614.236-2.344a.92.92 0 0 1 1.192-.753c1.586.517 3.074 1.331 4.078 2.58a.824.824 0 0 1 0 1.034C8.928 8.766 7.44 9.58 5.854 10.097a.92.92 0 0 1-1.193-.753" clip-rule="evenodd"/></symbol>
<symbol id="check-square-solid" viewBox="0 0 14 14"><path fill="currentColor" fill-rule="evenodd" d="M3.657.475C4.731.355 5.852.25 7 .25s2.269.105 3.343.225a3.63 3.63 0 0 1 3.194 3.203c.115 1.069.213 2.182.213 3.322s-.098 2.253-.213 3.322a3.63 3.63 0 0 1-3.194 3.203c-1.074.12-2.195.225-3.343.225s-2.269-.105-3.343-.225a3.63 3.63 0 0 1-3.194-3.203C.348 9.253.25 8.14.25 7s.098-2.253.213-3.322A3.63 3.63 0 0 1 3.657.475M9.92 4.963a.625.625 0 0 0-.84-.926c-.83.754-1.455 1.431-1.98 2.253c-.384.599-.707 1.26-1.023 2.062L4.949 7.19a.625.625 0 0 0-.898.87L5.87 9.935a.625.625 0 0 0 1.04-.23c.42-1.207.793-2.04 1.242-2.74c.447-.698.986-1.292 1.769-2.002" clip-rule="evenodd"/></symbol>
<symbol id="application-add-solid" viewBox="0 0 14 14"><path fill="currentColor" fill-rule="evenodd" d="M3.274.25c-.46 0-.904.042-1.32.088a1.704 1.704 0 0 0-1.5 1.506c-.045.413-.084.855-.084 1.31s.04.896.084 1.31a1.704 1.704 0 0 0 1.5 1.505c.416.047.86.089 1.32.089s.904-.042 1.32-.089a1.704 1.704 0 0 0 1.5-1.505c.045-.414.084-.855.084-1.31s-.04-.897-.084-1.31a1.704 1.704 0 0 0-1.5-1.506A12 12 0 0 0 3.274.25m8.202 8.468a.75.75 0 0 0-1.5 0v1.379H8.598a.75.75 0 0 0 0 1.5h1.378v1.378a.75.75 0 1 0 1.5 0v-1.378h1.378a.75.75 0 0 0 0-1.5h-1.378zm-8.202-.776c-.46 0-.904.042-1.32.089a1.704 1.704 0 0 0-1.5 1.505c-.045.414-.084.855-.084 1.31s.04.897.084 1.31a1.704 1.704 0 0 0 1.5 1.506c.416.046.86.088 1.32.088s.904-.042 1.32-.088a1.704 1.704 0 0 0 1.5-1.505c.045-.414.084-.855.084-1.31s-.04-.897-.084-1.311a1.704 1.704 0 0 0-1.5-1.505c-.416-.047-.86-.089-1.32-.089M10.726.25c-.46 0-.904.042-1.32.088a1.704 1.704 0 0 0-1.5 1.506c-.045.413-.084.855-.084 1.31s.04.896.084 1.31a1.704 1.704 0 0 0 1.5 1.505c.416.047.86.089 1.32.089s.904-.042 1.32-.089a1.705 1.705 0 0 0 1.5-1.505c.044-.414.084-.855.084-1.31s-.04-.897-.084-1.31a1.705 1.705 0 0 0-1.5-1.506c-.416-.046-.86-.088-1.32-.088" clip-rule="evenodd"/></symbol>
<symbol id="navigation-arrow-north-solid" viewBox="0 0 14 14"><path fill="currentColor" fill-rule="evenodd" d="M6.025 1.684a1.365 1.365 0 0 1 1.95 0c2.137 2.171 3.47 5.456 4.287 8.871c.29 1.213-.946 2.149-2.038 1.658L7 10.763l-3.224 1.45c-1.091.49-2.328-.445-2.038-1.658c.818-3.415 2.15-6.7 4.287-8.871" clip-rule="evenodd"/></symbol>
<symbol id="bell-solid" viewBox="0 0 14 14"><path fill="currentColor" fill-rule="evenodd" d="M6.25 2.901V1.744h-.669a.75.75 0 0 1 0-1.5H8.42a.75.75 0 1 1 0 1.5h-.67v1.157a6.65 6.65 0 0 1 5.898 6.606a.5.5 0 0 1-.387.487l-2.081.483a18.5 18.5 0 0 1-8.36 0L.74 9.994a.5.5 0 0 1-.387-.487A6.65 6.65 0 0 1 6.25 2.901m-5.229 8.646a.75.75 0 1 0-.339 1.461l2.082.483a18.76 18.76 0 0 0 8.472 0l2.082-.483a.75.75 0 0 0-.34-1.46l-2.08.482a17.25 17.25 0 0 1-7.795 0z" clip-rule="evenodd"/></symbol>
<symbol id="cog-solid" viewBox="0 0 14 14"><path fill="currentColor" fill-rule="evenodd" d="M6.609.25h.784a1.46 1.46 0 0 1 1.358.928l.359.912l1.09.629l.966-.147a1.46 1.46 0 0 1 1.484.715l.391.676a1.46 1.46 0 0 1-.123 1.643l-.61.763v1.262l.606.763a1.46 1.46 0 0 1 .123 1.643l-.39.676a1.46 1.46 0 0 1-1.484.715l-.967-.147l-1.091.63l-.357.91a1.46 1.46 0 0 1-1.358.929h-.783a1.46 1.46 0 0 1-1.358-.929l-.357-.91l-1.091-.63l-.967.147a1.46 1.46 0 0 1-1.484-.714l-.39-.677a1.46 1.46 0 0 1 .123-1.643l.61-.763V6.369l-.61-.763a1.46 1.46 0 0 1-.124-1.643l.39-.676a1.46 1.46 0 0 1 1.485-.715l.964.147l1.094-.634l.359-.907A1.46 1.46 0 0 1 6.609.25M8.996 7c0 1.277-.719 1.996-1.996 1.996S5.004 8.277 5.004 7S5.723 5.004 7 5.004S8.996 5.723 8.996 7" clip-rule="evenodd"/></symbol>
<symbol id="film-solid" viewBox="0 0 14 14"><path fill="currentColor" fill-rule="evenodd" d="M2.396.25C1.68.25 1.044.762.941 1.498C.78 2.638.595 4.532.595 7s.186 4.362.346 5.502a1.46 1.46 0 0 0 1.455 1.248h9.208c.716 0 1.352-.512 1.455-1.248c.16-1.14.346-3.034.346-5.502s-.186-4.362-.346-5.502A1.46 1.46 0 0 0 11.604.25zm.962 4.928c.051-1.018.17-2.008.28-2.666c.072-.425.442-.705.873-.705H9.49c.43 0 .8.28.872.705c.11.658.23 1.648.281 2.666a.96.96 0 0 1-.973 1H4.33a.96.96 0 0 1-.973-1m7.003 6.31c.11-.659.23-1.648.281-2.666a.96.96 0 0 0-.973-1H4.33a.96.96 0 0 0-.973 1c.052 1.018.17 2.008.28 2.666c.072.425.442.704.873.704h4.98c.43 0 .8-.279.872-.704" clip-rule="evenodd"/></symbol>
<symbol id="film-slate-solid" viewBox="0 0 14 14"><path fill="currentColor" fill-rule="evenodd" d="M5.5 1.682a.25.25 0 0 0-.177.187l-.684 3.1a.25.25 0 0 0 .311.294l2.336-.643a.25.25 0 0 0 .178-.187l.684-3.1a.25.25 0 0 0-.311-.295zm-1.907.526a.25.25 0 0 1 .31.295l-.683 3.1a.25.25 0 0 1-.178.186l-1.095.302H11.5a1.5 1.5 0 0 1 1.5 1.5v3.639a2.5 2.5 0 0 1-2.5 2.5h-7a2.5 2.5 0 0 1-2.5-2.5V6.16a.3.3 0 0 1-.025-.06L.557 4.607a1.5 1.5 0 0 1 1.046-1.85zm5.601 1.886l2.449-.675a1 1 0 0 0 .697-1.233l-.217-.779A1.5 1.5 0 0 0 10.279.365l-.534.148A.25.25 0 0 0 9.567.7l-.683 3.099a.25.25 0 0 0 .31.295M4 10.125a.625.625 0 1 0 0 1.25h1.5a.625.625 0 1 0 0-1.25z" clip-rule="evenodd"/></symbol>
<symbol id="screen-curve-solid" viewBox="0 0 14 14"><path fill="currentColor" fill-rule="evenodd" d="M.63 2.119A1.776 1.776 0 0 1 2.441.604C3.91.656 5.432.698 7 .698s3.088-.022 4.538-.082a1.786 1.786 0 0 1 1.836 1.519l.036.237c.14.93.297 1.96.297 3.017c0 1.058-.156 2.087-.298 3.018l-.037.247a1.78 1.78 0 0 1-1.82 1.516a125 125 0 0 0-3.302-.082v2.025h1.125a.75.75 0 1 1 0 1.5h-4.75a.75.75 0 0 1 0-1.5H5.75V10.09c-.883.015-1.749.042-2.609.069H3.14l-.713.022A1.77 1.77 0 0 1 .631 8.67l-.04-.262C.45 7.476.294 6.448.294 5.39S.45 3.303.591 2.372l.038-.252Zm1.76-.016a.276.276 0 0 0-.277.239l-.036.238c-.144.95-.283 1.87-.283 2.81c0 .938.139 1.858.282 2.807l.038.25a.27.27 0 0 0 .268.235l.704-.021h.003C4.351 8.62 5.65 8.58 7 8.58c1.594 0 3.12.035 4.608.09a.28.28 0 0 0 .28-.24l.036-.232c.144-.95.283-1.87.283-2.81s-.14-1.86-.283-2.81l-.034-.221a.286.286 0 0 0-.29-.243c-1.477.061-3.019.083-4.6.083c-1.594 0-3.135-.043-4.61-.095Z" clip-rule="evenodd"/></symbol>
<symbol id="crown-solid" viewBox="0 0 14 14"><path fill="currentColor" fill-rule="evenodd" d="M7 .563a.74.74 0 0 0-.661.412L4.073 5.756a.5.5 0 0 1-.837.058L1.705 3.106l-.024-.039a.68.68 0 0 0-.697-.281a.66.66 0 0 0-.521.58C.348 4.434.25 5.547.25 6.688c0 1.14.098 2.253.213 3.321a3.63 3.63 0 0 0 3.194 3.204c1.074.12 2.195.225 3.343.225s2.269-.106 3.343-.225a3.63 3.63 0 0 0 3.194-3.204c.115-1.068.213-2.181.213-3.322c0-1.14-.098-2.253-.213-3.321a.66.66 0 0 0-.521-.58a.68.68 0 0 0-.72.32l-1.532 2.708a.5.5 0 0 1-.837-.058L7.66.975l-.01-.02A.74.74 0 0 0 7 .563" clip-rule="evenodd"/></symbol>
<symbol id="information-circle-solid" viewBox="0 0 14 14"><path fill="currentColor" fill-rule="evenodd" d="M7 .185c1.682 0 3.402.488 4.628 1.512c1.382 1.154 2.08 3.011 2.176 4.856s-.402 3.776-1.538 5.11C11.022 13.124 8.98 13.816 7 13.816s-4.022-.692-5.266-2.153C.598 10.329.099 8.398.196 6.553S.99 2.85 2.372 1.697C3.598.673 5.318.185 7 .185m.257 2.906c.345 0 .625.28.625.625v.323a.625.625 0 1 1-1.25 0v-.323c0-.345.28-.625.625-.625m-1.51 2.284a.625.625 0 0 0 0 1.25h.496c.207 0 .375.168.375.375v2.106H5.76a.625.625 0 1 0 0 1.25h2.978a.625.625 0 0 0 0-1.25h-.871V7c0-.897-.728-1.625-1.625-1.625z" clip-rule="evenodd"/></symbol>
<symbol id="share-link-solid" viewBox="0 0 14 14"><path fill="currentColor" fill-rule="evenodd" d="M8.776.952C9.258.47 9.936.25 10.71.25c.777 0 1.454.22 1.936.702c.483.483.703 1.16.703 1.936s-.22 1.453-.703 1.936c-.482.482-1.16.702-1.936.702s-1.453-.22-1.935-.702a2.2 2.2 0 0 1-.421-.592c-.835.235-1.296.368-1.728.537a10 10 0 0 0-1.174.565c.324.452.474 1.025.474 1.666c0 .64-.15 1.214-.474 1.666c.496.269.828.43 1.175.565c.432.17.892.302 1.727.537q.16-.33.42-.592c.483-.482 1.16-.702 1.936-.702c.777 0 1.454.22 1.936.702c.483.483.703 1.16.703 1.936s-.22 1.453-.703 1.936c-.482.482-1.16.702-1.936.702s-1.453-.22-1.935-.702c-.454-.454-.676-1.08-.7-1.8c-.898-.253-1.464-.412-1.995-.62c-.598-.234-1.142-.525-2.069-1.046l-.018-.011a3.5 3.5 0 0 1-.705.067c-.777 0-1.454-.22-1.936-.702C.87 8.453.65 7.776.65 7s.22-1.453.703-1.936c.482-.482 1.16-.702 1.936-.702q.37 0 .705.067l.017-.01c.928-.522 1.472-.813 2.07-1.047c.53-.208 1.097-.367 1.995-.62c.024-.72.246-1.346.7-1.8" clip-rule="evenodd"/></symbol>
<symbol id="campfire-solid" viewBox="0 0 14 14"><path fill="currentColor" fill-rule="evenodd" d="M2.82 3.622a3.35 3.35 0 0 0-.327 1.529c.16 4.69 8.853 4.69 9.014 0a3.35 3.35 0 0 0-.327-1.529a2.9 2.9 0 0 0-.477-.704c-.217-.235-.58-.116-.734.165a4 4 0 0 1-.7.938S8.533.25 6.999.25c-1.532 0-2.268 3.77-2.268 3.77a4 4 0 0 1-.7-.937c-.154-.281-.517-.4-.734-.165q-.284.307-.478.704M1.22 9.818a.75.75 0 0 1 .834-.656c1.706.203 3.309.56 4.851 1.058a25.5 25.5 0 0 1 4.852-1.058a.75.75 0 1 1 .177 1.489q-1.365.164-2.651.464c.99.426 1.961.91 2.927 1.449a.75.75 0 1 1-.73 1.31A28.3 28.3 0 0 0 6.906 11.8a28.4 28.4 0 0 0-4.575 2.073a.75.75 0 0 1-.73-1.31a32 32 0 0 1 2.927-1.449q-1.286-.3-2.65-.464a.75.75 0 0 1-.657-.833" clip-rule="evenodd"/></symbol>
<symbol id="location-pin-3-solid" viewBox="0 0 14 14"><path fill="currentColor" fill-rule="evenodd" d="M6.945 0a4.79 4.79 0 0 0-4.78 4.45c-.085 1.193.183 2.432.934 3.419c.894 1.174 1.805 1.98 3.228 2.928c.407.27.938.27 1.346 0c1.423-.948 2.334-1.754 3.227-2.928c.752-.987 1.02-2.226.934-3.42A4.79 4.79 0 0 0 7.055 0zM7 6.094c.96 0 1.5-.54 1.5-1.5s-.54-1.5-1.5-1.5s-1.5.54-1.5 1.5s.54 1.5 1.5 1.5m-1.366 5.743c-1.252-.833-2.168-1.592-3.013-2.573a1.5 1.5 0 0 0-1.13.802L.35 12.294a1 1 0 0 0 .89 1.456h11.52a1 1 0 0 0 .887-1.462l-1.163-2.231a1.5 1.5 0 0 0-1.107-.79c-.845.98-1.761 1.737-3.012 2.57c-.827.55-1.904.55-2.73 0" clip-rule="evenodd"/></symbol>
<symbol id="router-wifi-network-solid" viewBox="0 0 14 14"><path fill="currentColor" fill-rule="evenodd" d="M.792 1.03a.75.75 0 0 1 .929.512l1.052 3.654a41 41 0 0 0-.825.085a3.6 3.6 0 0 0-.671.14L.279 1.958a.75.75 0 0 1 .513-.929m11.252 4.253q-.375-.043-.818-.084l1.053-3.656a.75.75 0 1 1 1.442.415l-.999 3.467a3.6 3.6 0 0 0-.678-.142m-.14 1.242c1.108.125 1.923.992 2.072 2.045q.024.17.024.349v1.331q0 .098-.012.191a1.5 1.5 0 0 1-1.488 1.31h-.75v.5a.75.75 0 0 1-1.5 0v-.5h-6.5v.5a.75.75 0 0 1-1.5 0v-.5H1.5a1.5 1.5 0 0 1-1.5-1.5V8.912c0-1.201.862-2.251 2.089-2.39a44 44 0 0 1 4.883-.272c2.024 0 3.75.141 4.932.274M3 8.625a.625.625 0 1 0 0 1.25h.5a.625.625 0 1 0 0-1.25zm1.943.625c0-.345.28-.625.625-.625h.5a.625.625 0 1 1 0 1.25h-.5a.625.625 0 0 1-.625-.625" clip-rule="evenodd"/></symbol>
<symbol id="padlock-square-1-solid" viewBox="0 0 14 14"><path fill="currentColor" fill-rule="evenodd" d="M7 .125a3.667 3.667 0 0 0-3.667 3.667v1.124a3.46 3.46 0 0 0-1.942 2.713c-.058.512-.1 1.04-.1 1.58c0 .539.042 1.067.1 1.578a3.46 3.46 0 0 0 3.298 3.048a65 65 0 0 0 4.622 0a3.46 3.46 0 0 0 3.298-3.048c.058-.511.1-1.04.1-1.579c0-.54-.042-1.067-.1-1.579a3.46 3.46 0 0 0-1.943-2.713V3.792A3.667 3.667 0 0 0 7 .125m2.166 4.451v-.784a2.167 2.167 0 1 0-4.333 0v.784A65 65 0 0 1 7 4.542c.762 0 1.474.011 2.166.034M7 7.876a.75.75 0 0 1 .75.75v.999a.75.75 0 0 1-1.5 0v-1a.75.75 0 0 1 .75-.75Z" clip-rule="evenodd"/></symbol>
<symbol id="happy-face-solid" viewBox="0 0 14 14"><path fill="currentColor" fill-rule="evenodd" d="M2.021 2.021C3.203.84 4.908.25 7 .25s3.797.59 4.979 1.771S13.75 4.908 13.75 7s-.59 3.797-1.771 4.979S9.092 13.75 7 13.75s-3.797-.59-4.979-1.771S.25 9.092.25 7s.59-3.797 1.771-4.979m3.056 2.61a.625.625 0 0 0-1.25 0v.7a.625.625 0 1 0 1.25 0zm-.648 3.163a.625.625 0 1 0-1.204.335C3.8 10.2 6.074 11.442 8.129 10.87l.046-.015c1.225-.445 2.253-1.454 2.6-2.73a.625.625 0 1 0-1.205-.329c-.227.832-.92 1.549-1.8 1.876c-1.4.375-2.957-.497-3.341-1.879m5.119-3.788c.345 0 .625.28.625.625v.7a.625.625 0 1 1-1.25 0v-.7c0-.345.28-.625.625-.625" clip-rule="evenodd"/></symbol>
<symbol id="chat-bubble-text-square-solid" viewBox="0 0 14 14"><path fill="currentColor" fill-rule="evenodd" d="M7.25.25c-1.337 0-2.787.118-4.099.267a2.43 2.43 0 0 0-2.14 2.152C.868 3.972.75 5.42.75 6.75c0 1.073.077 2.223.181 3.312l-.67 3.082a.5.5 0 0 0 .605.592l2.88-.685c1.146.115 2.366.199 3.504.199c1.337 0 2.787-.116 4.1-.263a2.43 2.43 0 0 0 2.14-2.152c.143-1.305.26-2.755.26-4.085s-.117-2.777-.26-4.08A2.43 2.43 0 0 0 11.35.516C10.039.368 8.588.25 7.25.25M4.188 5.5c0-.345.28-.625.625-.625h4.875a.625.625 0 1 1 0 1.25H4.812a.625.625 0 0 1-.625-.625m.625 2.375a.625.625 0 1 0 0 1.25H8.5a.625.625 0 1 0 0-1.25z" clip-rule="evenodd"/></symbol>
<symbol id="triangle-flag-solid" viewBox="0 0 14 14"><path fill="currentColor" fill-rule="evenodd" d="M11.199 4.543c.536.53.536 1.387 0 1.917c-1.921 1.896-4.87 3.012-7.846 3.654v2.64a.75.75 0 0 1-1.5 0V1.534a.75.75 0 0 1 .452-.69a.5.5 0 0 1 .392-.089c3.194.615 6.44 1.752 8.502 3.788" clip-rule="evenodd"/></symbol>
<symbol id="graph-bar-increase-square-solid" viewBox="0 0 14 14"><path fill="currentColor" fill-rule="evenodd" d="M3.657.475C4.731.355 5.852.25 7 .25s2.269.105 3.343.225a3.63 3.63 0 0 1 3.194 3.203c.115 1.069.213 2.182.213 3.322s-.098 2.253-.213 3.322a3.63 3.63 0 0 1-3.194 3.203c-1.074.12-2.195.225-3.343.225s-2.269-.105-3.343-.225a3.63 3.63 0 0 1-3.194-3.203C.348 9.253.25 8.14.25 7s.098-2.253.213-3.322A3.63 3.63 0 0 1 3.657.475m-.606 9.718a.95.95 0 0 1-.909-.884a6 6 0 0 1-.02-.469q.001-.237.02-.468a.953.953 0 0 1 .91-.885q.351-.01.704 0a.953.953 0 0 1 .91.885q.018.231.019.468v.846a.485.485 0 0 1-.451.49q-.59.036-1.183.017m2.668-.517c0 .246.179.457.424.481c.56.057 1.154.057 1.715 0a.477.477 0 0 0 .423-.48v-1.64c0-.428-.022-.848-.048-1.256c-.03-.472-.383-.87-.855-.896a7 7 0 0 0-.756 0c-.471.026-.825.424-.855.896c-.025.408-.048.828-.048 1.256zm3.986.457a.47.47 0 0 1-.39-.472V7a50 50 0 0 1 .067-2.293c.02-.45.335-.847.785-.888a5 5 0 0 1 .859 0c.45.04.765.437.785.888l.004.104c.03.706.062 1.438.062 2.188a50 50 0 0 1-.066 2.292c-.02.451-.336.846-.786.887q-.66.06-1.32-.046" clip-rule="evenodd"/></symbol>
<symbol id="bookmark-solid" viewBox="0 0 14 14"><path fill="currentColor" fill-rule="evenodd" d="M4.263.325c-1.425 0-2.634 1.095-2.72 2.54c-.19 3.196-.18 6.4.049 9.598c.078 1.097 1.396 1.61 2.195.855l3.041-2.876a.25.25 0 0 1 .344 0l3.041 2.875c.8.756 2.117.243 2.195-.854a74 74 0 0 0 .049-9.597C12.37 1.42 11.162.325 9.737.325z" clip-rule="evenodd"/></symbol>
<symbol id="trophy-solid" viewBox="0 0 14 14"><path fill="currentColor" fill-rule="evenodd" d="M.839.901a21.6 21.6 0 0 1 12.322 0c.495.147.834.602.834 1.118v1.497c0 1.092-.353 2.162-1.014 2.97c-.524.642-1.217 1.086-1.991 1.246a1 1 0 0 1-.152.015h-.048c-.406 1.35-1.43 2.464-2.795 2.834v1.916h1.404a.75.75 0 0 1 0 1.5H4.59a.75.75 0 1 1 0-1.5h1.404v-1.924c-1.342-.38-2.374-1.496-2.784-2.828h-.06a1 1 0 0 1-.153-.016c-.77-.162-1.457-.605-1.978-1.242c-.662-.81-1.015-1.88-1.015-2.97V2.018c0-.516.34-.97.834-1.118m2.335.97a38 38 0 0 0-.165 4.298a2.1 2.1 0 0 1-.828-.632c-.42-.515-.676-1.24-.676-2.02V2.268q.829-.236 1.669-.398m7.817 4.3q.008-.344.008-.69c0-1.22-.065-2.457-.175-3.61q.842.163 1.672.4v1.246c0 .78-.255 1.506-.676 2.021a2.1 2.1 0 0 1-.829.633" clip-rule="evenodd"/></symbol>
<symbol id="stopwatch-solid" viewBox="0 0 14 14"><path fill="currentColor" fill-rule="evenodd" d="M4.75.875a.75.75 0 0 1 .75-.75h3a.75.75 0 0 1 0 1.5h-.75v1.283c1.364.123 2.49.593 3.307 1.41c.962.963 1.443 2.352 1.443 4.057s-.48 3.094-1.443 4.057c-.963.962-2.352 1.443-4.057 1.443s-3.094-.48-4.057-1.443C1.981 11.469 1.5 10.08 1.5 8.375s.48-3.094 1.443-4.057c.818-.817 1.943-1.287 3.307-1.41V1.625H5.5a.75.75 0 0 1-.75-.75M7 5.76c.345 0 .625.28.625.625v1.74l1.017 1.018a.625.625 0 1 1-.884.884l-1.2-1.2a.63.63 0 0 1-.183-.442v-2c0-.345.28-.625.625-.625M2.97 1.675a.75.75 0 0 1-.155 1.049a7 7 0 0 0-1.443 1.435a.75.75 0 1 1-1.2-.9a8.6 8.6 0 0 1 1.75-1.74a.75.75 0 0 1 1.049.156Zm8.06 0a.75.75 0 0 0 .155 1.049c.547.406 1.034.89 1.443 1.435a.75.75 0 0 0 1.2-.9a8.6 8.6 0 0 0-1.75-1.74a.75.75 0 0 0-1.048.156" clip-rule="evenodd"/></symbol>
<symbol id="dark-dislay-mode-solid" viewBox="0 0 14 14"><path fill="currentColor" fill-rule="evenodd" d="M7 .25c-2.092 0-3.797.59-4.979 1.771S.25 4.908.25 7s.59 3.797 1.771 4.979S4.908 13.75 7 13.75s3.797-.59 4.979-1.771S13.75 9.092 13.75 7s-.59-3.797-1.771-4.979S9.092.25 7 .25M3.143 6.981a4.246 4.246 0 0 1 7.133-3.113c.199.185.178.438.08.608a.6.6 0 0 1-.508.296a2.21 2.21 0 1 0 0 4.419c.225 0 .412.132.508.296c.098.17.119.423-.08.608a4.246 4.246 0 0 1-7.133-3.114" clip-rule="evenodd"/></symbol>
<symbol id="logout-1-solid" viewBox="0 0 14 14"><path fill="currentColor" fill-rule="evenodd" d="M2.5.351a40.5 40.5 0 0 1 5.74 0c1.136.081 2.072.874 2.264 1.932a2.25 2.25 0 0 0-2.108 2.28H4.754a2.25 2.25 0 0 0 0 4.5h3.642a2.25 2.25 0 0 0 2.145 2.281l-.004.085c-.06 1.2-1.06 2.132-2.296 2.22a40.5 40.5 0 0 1-5.742 0C1.263 13.561.263 12.63.203 11.43a91 91 0 0 1 0-8.859C.263 1.372 1.263.439 2.5.351m7.356 5.462L9.661 4.7a1 1 0 0 1 1.432-1.067c1.107.553 2.178 1.624 2.731 2.731a1 1 0 0 1 0 .895c-.553 1.107-1.624 2.178-2.731 2.731A1 1 0 0 1 9.66 8.924l.195-1.111H4.754a1 1 0 1 1 0-2z" clip-rule="evenodd"/></symbol>
<symbol id="discussion-converstion-reply-solid" viewBox="0 0 14 14"><path fill="currentColor" fill-rule="evenodd" d="M3.841 2.28c2.412-.274 3.872-.274 6.284 0c.467.052.835.422.886.892l.047.449a.75.75 0 0 0 1.493-.15l-.049-.461A2.506 2.506 0 0 0 10.295.789C7.77.503 6.196.503 3.672.789a2.51 2.51 0 0 0-2.208 2.22a47 47 0 0 0-.165 1.799l-.26-.065a.794.794 0 0 0-.986.77c0 .53.321.977.596 1.252c.299.299.712.567 1.168.68a.8.8 0 0 0 .385 0a2.6 2.6 0 0 0 1.167-.68c.275-.275.596-.721.596-1.252a.794.794 0 0 0-.987-.77l-.173.043c.04-.545.092-1.09.15-1.614c.051-.47.42-.84.886-.893m7.362 5.781a41 41 0 0 1-.192 2.286c-.051.47-.42.84-.885.892c-2.262.254-3.58.28-5.833.048a.8.8 0 0 0-.25.017l-1.538.366l.372-1.711a.8.8 0 0 0 .014-.232l-.053-.583a.75.75 0 1 0-1.495.126q.02.244.044.485l-.6 2.762a.75.75 0 0 0 .906.888l2.574-.612c2.296.229 3.712.196 6.026-.064a2.504 2.504 0 0 0 2.21-2.22c.084-.78.16-1.62.202-2.45l.222.056a.794.794 0 0 0 .987-.77c0-.53-.32-.977-.596-1.252a2.6 2.6 0 0 0-1.167-.68a.8.8 0 0 0-.386 0a2.6 2.6 0 0 0-1.167.68c-.275.275-.596.721-.596 1.251a.794.794 0 0 0 .987.77z" clip-rule="evenodd"/></symbol>
<symbol id="pencil-square-solid" viewBox="0 0 14 14"><path fill="currentColor" fill-rule="evenodd" d="M13.354.637a1.944 1.944 0 0 0-2.8.053L7.24 4.265a1.5 1.5 0 0 0-.323.545l-.5 1.498a1 1 0 0 0 1.265 1.265l1.498-.5a1.5 1.5 0 0 0 .546-.322L13.3 3.437c.808-.75.833-2.02.053-2.8m-7.03 2.778a2.75 2.75 0 0 0-.592 1l-.5 1.498C4.646 7.672 6.32 9.345 8.079 8.759l1.498-.5a2.75 2.75 0 0 0 1-.591l1.853-1.719a.246.246 0 0 1 .415.163q.048.697.05 1.417q0 .369-.014.733q0 .027.004.053q.015.098.01.2c-.043.843-.13 1.664-.217 2.441a3.1 3.1 0 0 1-1.241 2.14a3.1 3.1 0 0 1-1.497.6c-.83.095-1.715.194-2.623.235q-.088.004-.172-.007l-.045-.002q-.3.01-.601.01c-1.211 0-2.385-.13-3.466-.256a3.094 3.094 0 0 1-2.713-2.72C.2 9.878.076 8.713.076 7.51q0-.369.015-.732q0-.027-.004-.054a1 1 0 0 1-.01-.2c.043-.842.13-1.664.217-2.44a3.1 3.1 0 0 1 1.241-2.141a3.1 3.1 0 0 1 1.497-.599a37 37 0 0 1 2.624-.236q.087-.003.17.007q.024.003.046.002a18 18 0 0 1 1.996.042a.246.246 0 0 1 .162.414z" clip-rule="evenodd"/></symbol>
<symbol id="recycle-bin-solid" viewBox="0 0 14 14"><path fill="currentColor" fill-rule="evenodd" d="M1.926.25C1.148.25.478.85.454 1.657c-.071 2.341.06 6.84.926 9.988c.373 1.36 1.665 2.105 2.974 2.105h5.292c1.308 0 2.6-.746 2.974-2.105c.865-3.148.997-7.647.926-9.988A1.46 1.46 0 0 0 12.074.25zM9.74 7.594a.625.625 0 0 1 .324.822a3.257 3.257 0 0 1-4.358 1.659l-.389.54a.625.625 0 0 1-1.127-.28c-.072-.535-.08-1.502-.046-1.995a.625.625 0 0 1 1.171-.258c.143.261.343.487.583.662a2.007 2.007 0 0 0 3.02-.826a.625.625 0 0 1 .822-.324M4.178 5.335a.625.625 0 1 0 1.146.498a2.007 2.007 0 0 1 3.603-.164a.625.625 0 0 0 1.171-.258c.034-.493.026-1.46-.046-1.995A.625.625 0 0 0 8.9 3.171l-.325.524a3.257 3.257 0 0 0-4.398 1.64" clip-rule="evenodd"/></symbol>
<symbol id="magic-wand-1-solid" viewBox="0 0 14 14"><path fill="currentColor" fill-rule="evenodd" d="M7.823.167a.75.75 0 0 1 .885.585l.323 1.584a.75.75 0 0 1-1.47.3l-.323-1.584a.75.75 0 0 1 .585-.885M12.59 1.41a.75.75 0 0 1 0 1.061l-1.143 1.143a.75.75 0 1 1-1.06-1.06l1.142-1.144a.75.75 0 0 1 1.06 0M8.774 5.226a.75.75 0 0 1 0 1.06l-7.341 7.342a.75.75 0 1 1-1.061-1.06l7.341-7.342a.75.75 0 0 1 1.061 0M5.595 2.047a.75.75 0 0 0-1.06 1.061l1.142 1.143a.75.75 0 0 0 1.061-1.06zm6.358 7.419a.75.75 0 0 0 0-1.06L10.81 7.261a.75.75 0 1 0-1.06 1.06l1.142 1.144a.75.75 0 0 0 1.061 0m1.295-4.173a.75.75 0 1 1-.3 1.47l-1.584-.324a.75.75 0 1 1 .3-1.47z" clip-rule="evenodd"/></symbol>
<symbol id="dashboard-3-solid" viewBox="0 0 14 14"><path fill="currentColor" fill-rule="evenodd" d="M3.295.286A8.6 8.6 0 0 0 1.9.423C1.439.5 1.072.8.824 1.165a2.76 2.76 0 0 0-.443 1.338C.335 3.132.296 3.788.296 4.462s.04 1.33.085 1.958c.037.5.192.97.443 1.338c.248.366.615.666 1.076.742c.433.071.905.137 1.395.137s.962-.066 1.396-.137c.46-.076.827-.376 1.076-.742a2.75 2.75 0 0 0 .442-1.338c.046-.629.085-1.285.085-1.958s-.039-1.33-.085-1.959a2.75 2.75 0 0 0-.442-1.338C5.518.799 5.152.499 4.69.423A8.6 8.6 0 0 0 3.295.286M10.7 13.714c.49 0 .963-.066 1.398-.137c.461-.075.829-.375 1.077-.74c.251-.37.408-.838.444-1.339c.046-.628.086-1.284.086-1.957s-.04-1.329-.086-1.957a2.74 2.74 0 0 0-.444-1.338c-.248-.366-.616-.666-1.077-.741a9 9 0 0 0-1.398-.137c-.491 0-.964.066-1.398.137c-.461.075-.83.375-1.078.74a2.75 2.75 0 0 0-.444 1.339a27 27 0 0 0-.085 1.957c0 .673.04 1.329.085 1.957c.037.5.193.97.444 1.338c.249.366.616.666 1.078.741a9 9 0 0 0 1.398.137m-7.404-3.657c-.463 0-.914.023-1.344.048a2.35 2.35 0 0 0-.949.25c-.254.135-.539.372-.612.737a4 4 0 0 0-.094.794c0 .287.047.559.094.793c.073.365.358.602.612.738c.27.144.603.228.95.249c.43.025.88.048 1.343.048s.914-.023 1.344-.048c.346-.02.679-.105.949-.25c.254-.135.54-.372.613-.737c.047-.234.093-.506.093-.793s-.046-.56-.093-.794c-.074-.365-.359-.602-.613-.738a2.3 2.3 0 0 0-.949-.248c-.43-.026-.88-.049-1.344-.049M10.7 3.942c.464 0 .916-.022 1.347-.047c.346-.02.68-.106.95-.25c.254-.134.54-.372.614-.737a4 4 0 0 0 .094-.794a4 4 0 0 0-.094-.793c-.074-.366-.36-.603-.614-.738a2.35 2.35 0 0 0-.95-.249A23 23 0 0 0 10.7.286c-.464 0-.916.023-1.347.048c-.347.02-.68.105-.95.249c-.255.135-.54.372-.614.738a4 4 0 0 0-.094.793a4 4 0 0 0 .094.794c.074.365.36.603.614.738c.27.143.603.228.95.249c.43.025.883.047 1.347.047" clip-rule="evenodd"/></symbol>
<symbol id="fa7-solid-check-circle" viewBox="0 0 512 512"><path fill="currentColor" d="M256 512a256 256 0 1 1 0-512a256 256 0 1 1 0 512m118-366.3c-10.7-7.8-25.7-5.4-33.5 5.3L221.1 315.2L169 263.1c-9.4-9.4-24.6-9.4-33.9 0s-9.4 24.6 0 33.9l72 72c5 5 11.8 7.5 18.8 7s13.4-4.1 17.5-9.8l135.9-187c7.8-10.7 5.4-25.7-5.3-33.5"/></symbol>
<symbol id="fa7-solid-bell" viewBox="0 0 448 512"><path fill="currentColor" d="M224 0c-17.7 0-32 14.3-32 32v3.2C119 50 64 114.6 64 192v21.7c0 48.1-16.4 94.8-46.4 132.4l-9.8 12.2C2.7 364.6 0 372.4 0 380.5C0 400.1 15.9 416 35.5 416h376.9c19.6 0 35.5-15.9 35.5-35.5c0-8.1-2.7-15.9-7.8-22.2l-9.8-12.2c-29.9-37.6-46.3-84.3-46.3-132.4V192c0-77.4-55-142-128-156.8V32c0-17.7-14.3-32-32-32m-62 464c7.1 27.6 32.2 48 62 48s54.9-20.4 62-48z"/></symbol>
<symbol id="icon-park-solid-play" viewBox="0 0 48 48"><path fill="currentColor" fill-rule="evenodd" d="M24 46C11.85 46 2 36.15 2 24S11.85 2 24 2s22 9.85 22 22s-9.85 22-22 22m-6-28.928v13.856c0 1.54 1.667 2.503 3 1.733l12-6.928a2 2 0 0 0 0-3.466l-12-6.928c-1.333-.77-3 .192-3 1.733" clip-rule="evenodd"/></symbol>
<symbol id="uis-comment-dots" viewBox="0 0 24 24"><path fill="currentColor" d="M12 2C6.5 2 2 6.5 2 12c0 2.3.8 4.5 2.3 6.3l-2 2c-.4.4-.4 1 0 1.4c.2.2.4.3.7.3h9c5.5 0 10-4.5 10-10S17.5 2 12 2M8 13c-.6 0-1-.4-1-1s.4-1 1-1s1 .4 1 1s-.4 1-1 1m4 0c-.6 0-1-.4-1-1s.4-1 1-1s1 .4 1 1s-.4 1-1 1m4 0c-.6 0-1-.4-1-1s.4-1 1-1s1 .4 1 1s-.4 1-1 1"/></symbol>
<symbol id="playlist-solid" viewBox="0 0 937 766">
<path fill-rule="evenodd" clip-rule="evenodd" d="M236.561 677.591C238.873 710.875 264.099 738.273 296.963 744.159L308.525 746.261C360.097 755.51 413.492 765.11 468.147 765.11C522.873 765.11 576.267 755.51 627.84 746.191L639.402 744.089C672.335 738.273 697.491 710.875 699.803 677.521L702.886 634.777C708.772 553.424 714.799 469.058 714.799 382.52C714.799 296.122 708.772 211.756 702.886 130.333L699.803 87.5893C698.508 71.3781 691.878 56.053 680.95 44.0091C670.022 31.9653 655.411 23.8816 639.402 21.0214L627.84 18.9193C576.267 9.66985 522.873 0 468.147 0C413.421 0 360.097 9.66985 308.525 18.9193L296.963 21.0214C264.029 26.8373 238.873 54.3053 236.561 87.5893L233.478 130.333C227.592 211.756 221.496 296.122 221.496 382.59C221.496 469.058 227.592 553.424 233.478 634.847L236.561 677.591ZM807.573 683.687C805.035 683.886 802.483 683.534 800.094 682.654C797.705 681.775 795.534 680.389 793.73 678.592C791.926 676.795 790.532 674.629 789.644 672.243C788.756 669.857 788.394 667.307 788.584 664.768L789.074 657.62L790.195 641.714C796.081 560.431 802.458 472.492 802.458 382.59C802.458 292.688 796.081 204.679 790.195 123.326L789.074 107.49L788.584 100.342C788.395 97.8095 788.756 95.266 789.64 92.8851C790.524 90.5042 791.911 88.3421 793.707 86.5462C795.503 84.7504 797.665 83.363 800.046 82.4789C802.427 81.5947 804.97 81.2346 807.503 81.423L843.169 84.2259C876.594 86.6784 903.851 112.044 909.247 145.188L913.591 171.745C924.803 239.784 936.364 310.276 936.364 382.59C936.364 454.904 924.733 525.326 913.591 593.365L909.247 619.992C906.636 636.079 898.707 650.826 886.729 661.877C874.751 672.928 859.414 679.645 843.169 680.954L807.573 683.687ZM147.781 664.768C147.969 667.3 147.609 669.844 146.725 672.225C145.841 674.606 144.453 676.768 142.657 678.564C140.862 680.36 138.699 681.747 136.319 682.631C133.938 683.515 131.394 683.875 128.861 683.687L93.195 680.884C76.9605 679.578 61.6315 672.871 49.6545 661.834C37.6776 650.797 29.7431 636.066 27.1176 619.992L22.7732 593.365C11.5618 525.396 0 454.834 0 382.59C0 310.276 11.6319 239.784 22.7732 171.745L27.1176 145.118C32.5131 112.044 59.7709 86.6783 93.195 84.1558L128.791 81.4931C131.33 81.294 133.881 81.6463 136.27 82.5257C138.66 83.4051 140.831 84.7908 142.635 86.5879C144.438 88.385 145.832 90.5508 146.72 92.937C147.609 95.3232 147.97 97.8733 147.781 100.412L147.29 107.419L146.169 123.466C140.283 204.749 133.977 292.688 133.977 382.59C133.977 472.492 140.353 560.431 146.239 641.714L147.36 657.69L147.781 664.768Z" fill="currentColor"/>
</symbol>
<symbol id="control-plus" viewBox="0 0 14 14"><path fill="currentColor" d="M6 1.75a1 1 0 0 1 2 0V6h4.25a1 1 0 1 1 0 2H8v4.25a1 1 0 1 1-2 0V8H1.75a1 1 0 1 1 0-2H6z"/></symbol>
<symbol id="control-plus-circle" viewBox="0 0 14 14"><path fill="currentColor" fill-rule="evenodd" d="M7 14A7 7 0 1 0 7 0a7 7 0 0 0 0 14M6 3.5a1 1 0 1 1 2 0V6h2.5a1 1 0 1 1 0 2H8v2.5a1 1 0 1 1-2 0V8H3.5a1 1 0 1 1 0-2H6z" clip-rule="evenodd"/></symbol>
<symbol id="control-chevron-right" viewBox="0 0 14 14"><path fill="currentColor" d="M4.18 1.72a1 1 0 0 1 1.41 0l4.58 4.57a1 1 0 0 1 0 1.42l-4.58 4.57a1 1 0 1 1-1.41-1.41L8.05 7 4.18 3.13a1 1 0 0 1 0-1.41"/></symbol>
<symbol id="control-chevron-left" viewBox="0 0 14 14"><path fill="currentColor" d="M9.82 1.72a1 1 0 0 0-1.41 0L3.83 6.29a1 1 0 0 0 0 1.42l4.58 4.57a1 1 0 1 0 1.41-1.41L5.95 7l3.87-3.87a1 1 0 0 0 0-1.41"/></symbol>
<symbol id="control-chevron-down" viewBox="0 0 14 14"><path fill="currentColor" d="M1.72 4.18a1 1 0 0 1 1.41 0L7 8.05l3.87-3.87a1 1 0 1 1 1.41 1.41L7.71 10.17a1 1 0 0 1-1.42 0L1.72 5.59a1 1 0 0 1 0-1.41"/></symbol>
<symbol id="control-close-circle" viewBox="0 0 14 14"><path fill="currentColor" fill-rule="evenodd" d="M7 14A7 7 0 1 0 7 0a7 7 0 0 0 0 14M4.47 4.47a.85.85 0 0 1 1.2 0L7 5.8l1.33-1.33a.85.85 0 1 1 1.2 1.2L8.2 7l1.33 1.33a.85.85 0 1 1-1.2 1.2L7 8.2 5.67 9.53a.85.85 0 1 1-1.2-1.2L5.8 7 4.47 5.67a.85.85 0 0 1 0-1.2" clip-rule="evenodd"/></symbol>
<symbol id="control-eye" viewBox="0 0 14 14"><path fill="currentColor" fill-rule="evenodd" d="M.41 6.3C1.5 3.56 3.86 2 7 2s5.5 1.56 6.59 4.3a1.9 1.9 0 0 1 0 1.4C12.5 10.44 10.14 12 7 12S1.5 10.44.41 7.7a1.9 1.9 0 0 1 0-1.4M7 9.75A2.75 2.75 0 1 0 7 4.25a2.75 2.75 0 0 0 0 5.5m0-1.5a1.25 1.25 0 1 0 0-2.5 1.25 1.25 0 0 0 0 2.5" clip-rule="evenodd"/></symbol>
<symbol id="control-menu-dots" viewBox="0 0 14 14"><path fill="currentColor" d="M2 5.5a1.5 1.5 0 1 1 0 3 1.5 1.5 0 0 1 0-3m5 0a1.5 1.5 0 1 1 0 3 1.5 1.5 0 0 1 0-3m5 0a1.5 1.5 0 1 1 0 3 1.5 1.5 0 0 1 0-3"/></symbol>
</defs>
</svg>
