<svg width="937" height="766" viewBox="0 0 937 766" fill="none" xmlns="http://www.w3.org/2000/svg">
<path fill-rule="evenodd" clip-rule="evenodd" d="M236.561 677.591C238.873 710.875 264.099 738.273 296.963 744.159L308.525 746.261C360.097 755.51 413.492 765.11 468.147 765.11C522.873 765.11 576.267 755.51 627.84 746.191L639.402 744.089C672.335 738.273 697.491 710.875 699.803 677.521L702.886 634.777C708.772 553.424 714.799 469.058 714.799 382.52C714.799 296.122 708.772 211.756 702.886 130.333L699.803 87.5893C698.508 71.3781 691.878 56.053 680.95 44.0091C670.022 31.9653 655.411 23.8816 639.402 21.0214L627.84 18.9193C576.267 9.66985 522.873 0 468.147 0C413.421 0 360.097 9.66985 308.525 18.9193L296.963 21.0214C264.029 26.8373 238.873 54.3053 236.561 87.5893L233.478 130.333C227.592 211.756 221.496 296.122 221.496 382.59C221.496 469.058 227.592 553.424 233.478 634.847L236.561 677.591ZM807.573 683.687C805.035 683.886 802.483 683.534 800.094 682.654C797.705 681.775 795.534 680.389 793.73 678.592C791.926 676.795 790.532 674.629 789.644 672.243C788.756 669.857 788.394 667.307 788.584 664.768L789.074 657.62L790.195 641.714C796.081 560.431 802.458 472.492 802.458 382.59C802.458 292.688 796.081 204.679 790.195 123.326L789.074 107.49L788.584 100.342C788.395 97.8095 788.756 95.266 789.64 92.8851C790.524 90.5042 791.911 88.3421 793.707 86.5462C795.503 84.7504 797.665 83.363 800.046 82.4789C802.427 81.5947 804.97 81.2346 807.503 81.423L843.169 84.2259C876.594 86.6784 903.851 112.044 909.247 145.188L913.591 171.745C924.803 239.784 936.364 310.276 936.364 382.59C936.364 454.904 924.733 525.326 913.591 593.365L909.247 619.992C906.636 636.079 898.707 650.826 886.729 661.877C874.751 672.928 859.414 679.645 843.169 680.954L807.573 683.687ZM147.781 664.768C147.969 667.3 147.609 669.844 146.725 672.225C145.841 674.606 144.453 676.768 142.657 678.564C140.862 680.36 138.699 681.747 136.319 682.631C133.938 683.515 131.394 683.875 128.861 683.687L93.195 680.884C76.9605 679.578 61.6315 672.871 49.6545 661.834C37.6776 650.797 29.7431 636.066 27.1176 619.992L22.7732 593.365C11.5618 525.396 0 454.834 0 382.59C0 310.276 11.6319 239.784 22.7732 171.745L27.1176 145.118C32.5131 112.044 59.7709 86.6783 93.195 84.1558L128.791 81.4931C131.33 81.294 133.881 81.6463 136.27 82.5257C138.66 83.4051 140.831 84.7908 142.635 86.5879C144.438 88.385 145.832 90.5508 146.72 92.937C147.609 95.3232 147.97 97.8733 147.781 100.412L147.29 107.419L146.169 123.466C140.283 204.749 133.977 292.688 133.977 382.59C133.977 472.492 140.353 560.431 146.239 641.714L147.36 657.69L147.781 664.768Z" fill="black"/>
</svg>
